<mxfile host="app.diagrams.net" modified="2023-05-09T07:29:52.358Z" agent="Mozilla/5.0 (Windows NT 10.0; Win64; x64) AppleWebKit/537.36 (KHTML, like Gecko) Chrome/112.0.0.0 Safari/537.36" etag="1-s_XuMiAqmiVsSSx9T8" version="21.2.9" type="github">
  <diagram name="Page-1" id="0Pypl3nD3qgLUFPaJeL7">
    <mxGraphModel dx="1611" dy="434" grid="1" gridSize="10" guides="1" tooltips="1" connect="1" arrows="1" fold="1" page="1" pageScale="1" pageWidth="850" pageHeight="1100" math="0" shadow="0">
      <root>
        <mxCell id="0" />
        <mxCell id="1" parent="0" />
        <mxCell id="9KwQHy-xfINPgwp2Dgyj-37" style="edgeStyle=orthogonalEdgeStyle;rounded=0;orthogonalLoop=1;jettySize=auto;html=1;entryX=0.005;entryY=0.213;entryDx=0;entryDy=0;entryPerimeter=0;" edge="1" parent="1" source="9KwQHy-xfINPgwp2Dgyj-1" target="9KwQHy-xfINPgwp2Dgyj-3">
          <mxGeometry relative="1" as="geometry" />
        </mxCell>
        <mxCell id="9KwQHy-xfINPgwp2Dgyj-1" value="AI CONTROLLER" style="rounded=0;whiteSpace=wrap;html=1;fillColor=#f5f5f5;fontColor=#333333;strokeColor=#666666;" vertex="1" parent="1">
          <mxGeometry x="-170" y="190" width="120" height="60" as="geometry" />
        </mxCell>
        <mxCell id="9KwQHy-xfINPgwp2Dgyj-11" style="edgeStyle=orthogonalEdgeStyle;rounded=0;orthogonalLoop=1;jettySize=auto;html=1;entryX=0;entryY=0.5;entryDx=0;entryDy=0;fillColor=#f8cecc;strokeColor=#b85450;strokeWidth=2;" edge="1" parent="1" source="9KwQHy-xfINPgwp2Dgyj-3" target="9KwQHy-xfINPgwp2Dgyj-6">
          <mxGeometry relative="1" as="geometry">
            <Array as="points">
              <mxPoint x="460" y="245" />
            </Array>
          </mxGeometry>
        </mxCell>
        <mxCell id="9KwQHy-xfINPgwp2Dgyj-18" style="edgeStyle=orthogonalEdgeStyle;rounded=0;orthogonalLoop=1;jettySize=auto;html=1;exitX=1;exitY=0;exitDx=0;exitDy=0;entryX=0;entryY=0.5;entryDx=0;entryDy=0;" edge="1" parent="1" source="9KwQHy-xfINPgwp2Dgyj-3" target="9KwQHy-xfINPgwp2Dgyj-13">
          <mxGeometry relative="1" as="geometry" />
        </mxCell>
        <mxCell id="9KwQHy-xfINPgwp2Dgyj-28" style="edgeStyle=orthogonalEdgeStyle;rounded=0;orthogonalLoop=1;jettySize=auto;html=1;exitX=0.25;exitY=1;exitDx=0;exitDy=0;entryX=0.933;entryY=-0.007;entryDx=0;entryDy=0;entryPerimeter=0;fillColor=#f8cecc;strokeColor=#b85450;strokeWidth=2;" edge="1" parent="1" source="9KwQHy-xfINPgwp2Dgyj-3" target="9KwQHy-xfINPgwp2Dgyj-5">
          <mxGeometry relative="1" as="geometry" />
        </mxCell>
        <mxCell id="9KwQHy-xfINPgwp2Dgyj-29" style="edgeStyle=orthogonalEdgeStyle;rounded=0;orthogonalLoop=1;jettySize=auto;html=1;exitX=0;exitY=0.75;exitDx=0;exitDy=0;entryX=0.5;entryY=0;entryDx=0;entryDy=0;fillColor=#f8cecc;strokeColor=#b85450;strokeWidth=2;" edge="1" parent="1" source="9KwQHy-xfINPgwp2Dgyj-3" target="9KwQHy-xfINPgwp2Dgyj-4">
          <mxGeometry relative="1" as="geometry">
            <mxPoint x="-60" y="267.37931034482756" as="targetPoint" />
          </mxGeometry>
        </mxCell>
        <mxCell id="9KwQHy-xfINPgwp2Dgyj-31" style="edgeStyle=orthogonalEdgeStyle;rounded=0;orthogonalLoop=1;jettySize=auto;html=1;exitX=0.25;exitY=0;exitDx=0;exitDy=0;entryX=0.599;entryY=1.067;entryDx=0;entryDy=0;entryPerimeter=0;fillColor=#f8cecc;strokeColor=#b85450;strokeWidth=2;" edge="1" parent="1" source="9KwQHy-xfINPgwp2Dgyj-3" target="9KwQHy-xfINPgwp2Dgyj-30">
          <mxGeometry relative="1" as="geometry" />
        </mxCell>
        <mxCell id="9KwQHy-xfINPgwp2Dgyj-3" value="TANK" style="rounded=0;whiteSpace=wrap;html=1;fillColor=#dae8fc;strokeColor=#6c8ebf;" vertex="1" parent="1">
          <mxGeometry x="110" y="200" width="170" height="90" as="geometry" />
        </mxCell>
        <mxCell id="9KwQHy-xfINPgwp2Dgyj-4" value="PROJECTILE" style="rounded=0;whiteSpace=wrap;html=1;fillColor=#f5f5f5;fontColor=#333333;strokeColor=#666666;" vertex="1" parent="1">
          <mxGeometry x="-110" y="430" width="110" height="60" as="geometry" />
        </mxCell>
        <mxCell id="9KwQHy-xfINPgwp2Dgyj-10" style="edgeStyle=orthogonalEdgeStyle;rounded=0;orthogonalLoop=1;jettySize=auto;html=1;entryX=0;entryY=1;entryDx=0;entryDy=0;" edge="1" parent="1" source="9KwQHy-xfINPgwp2Dgyj-5" target="9KwQHy-xfINPgwp2Dgyj-3">
          <mxGeometry relative="1" as="geometry">
            <mxPoint x="85" y="330" as="targetPoint" />
            <Array as="points">
              <mxPoint x="110" y="370" />
              <mxPoint x="110" y="370" />
            </Array>
          </mxGeometry>
        </mxCell>
        <mxCell id="9KwQHy-xfINPgwp2Dgyj-5" value="BARREL" style="rounded=0;whiteSpace=wrap;html=1;fillColor=#f5f5f5;fontColor=#333333;strokeColor=#666666;" vertex="1" parent="1">
          <mxGeometry x="50" y="440" width="110" height="60" as="geometry" />
        </mxCell>
        <mxCell id="9KwQHy-xfINPgwp2Dgyj-26" style="edgeStyle=orthogonalEdgeStyle;rounded=0;orthogonalLoop=1;jettySize=auto;html=1;exitX=0.5;exitY=1;exitDx=0;exitDy=0;entryX=1;entryY=1;entryDx=0;entryDy=0;fillColor=#ffe6cc;strokeColor=#d79b00;strokeWidth=2;" edge="1" parent="1" source="9KwQHy-xfINPgwp2Dgyj-6" target="9KwQHy-xfINPgwp2Dgyj-5">
          <mxGeometry relative="1" as="geometry">
            <mxPoint x="510" y="500" as="targetPoint" />
            <Array as="points">
              <mxPoint x="510" y="275" />
              <mxPoint x="510" y="500" />
            </Array>
          </mxGeometry>
        </mxCell>
        <mxCell id="9KwQHy-xfINPgwp2Dgyj-41" style="edgeStyle=orthogonalEdgeStyle;rounded=0;orthogonalLoop=1;jettySize=auto;html=1;exitX=0.25;exitY=0;exitDx=0;exitDy=0;entryX=0.957;entryY=1;entryDx=0;entryDy=0;entryPerimeter=0;fillColor=#fff2cc;strokeColor=#d6b656;strokeWidth=2;" edge="1" parent="1" source="9KwQHy-xfINPgwp2Dgyj-6" target="9KwQHy-xfINPgwp2Dgyj-13">
          <mxGeometry relative="1" as="geometry" />
        </mxCell>
        <mxCell id="9KwQHy-xfINPgwp2Dgyj-6" value="AIMING COMPONENT" style="rounded=0;whiteSpace=wrap;html=1;fillColor=#dae8fc;strokeColor=#6c8ebf;" vertex="1" parent="1">
          <mxGeometry x="460" y="215" width="120" height="60" as="geometry" />
        </mxCell>
        <mxCell id="9KwQHy-xfINPgwp2Dgyj-12" value="TANK TRACKS" style="rounded=0;whiteSpace=wrap;html=1;fillColor=#f5f5f5;fontColor=#333333;strokeColor=#666666;" vertex="1" parent="1">
          <mxGeometry x="160" y="60" width="110" height="60" as="geometry" />
        </mxCell>
        <mxCell id="9KwQHy-xfINPgwp2Dgyj-13" value="TANK TURRET" style="rounded=0;whiteSpace=wrap;html=1;fillColor=#f5f5f5;fontColor=#333333;strokeColor=#666666;" vertex="1" parent="1">
          <mxGeometry x="370" y="60" width="115" height="60" as="geometry" />
        </mxCell>
        <mxCell id="9KwQHy-xfINPgwp2Dgyj-24" style="edgeStyle=orthogonalEdgeStyle;rounded=0;orthogonalLoop=1;jettySize=auto;html=1;exitX=0;exitY=0.25;exitDx=0;exitDy=0;entryX=0.937;entryY=1.011;entryDx=0;entryDy=0;entryPerimeter=0;" edge="1" parent="1" source="9KwQHy-xfINPgwp2Dgyj-20" target="9KwQHy-xfINPgwp2Dgyj-3">
          <mxGeometry relative="1" as="geometry">
            <mxPoint x="270" y="410" as="targetPoint" />
          </mxGeometry>
        </mxCell>
        <mxCell id="9KwQHy-xfINPgwp2Dgyj-39" style="edgeStyle=orthogonalEdgeStyle;rounded=0;orthogonalLoop=1;jettySize=auto;html=1;exitX=0.25;exitY=0;exitDx=0;exitDy=0;fillColor=#0050ef;strokeColor=#001DBC;strokeWidth=2;entryX=1;entryY=0.75;entryDx=0;entryDy=0;" edge="1" parent="1" source="9KwQHy-xfINPgwp2Dgyj-20" target="9KwQHy-xfINPgwp2Dgyj-6">
          <mxGeometry relative="1" as="geometry">
            <mxPoint x="600" y="260" as="targetPoint" />
            <Array as="points">
              <mxPoint x="600" y="450" />
              <mxPoint x="600" y="260" />
            </Array>
          </mxGeometry>
        </mxCell>
        <mxCell id="9KwQHy-xfINPgwp2Dgyj-43" style="edgeStyle=orthogonalEdgeStyle;rounded=0;orthogonalLoop=1;jettySize=auto;html=1;exitX=0;exitY=0;exitDx=0;exitDy=0;entryX=1.017;entryY=0.67;entryDx=0;entryDy=0;entryPerimeter=0;" edge="1" parent="1" source="9KwQHy-xfINPgwp2Dgyj-20" target="9KwQHy-xfINPgwp2Dgyj-3">
          <mxGeometry relative="1" as="geometry">
            <mxPoint x="290" y="260" as="targetPoint" />
            <Array as="points">
              <mxPoint x="560" y="360" />
              <mxPoint x="361" y="360" />
              <mxPoint x="361" y="260" />
            </Array>
          </mxGeometry>
        </mxCell>
        <mxCell id="9KwQHy-xfINPgwp2Dgyj-20" value="PLAYER CONTROLLER" style="rounded=0;whiteSpace=wrap;html=1;fillColor=#f5f5f5;fontColor=#333333;strokeColor=#666666;" vertex="1" parent="1">
          <mxGeometry x="560" y="450" width="110" height="60" as="geometry" />
        </mxCell>
        <mxCell id="9KwQHy-xfINPgwp2Dgyj-35" style="edgeStyle=orthogonalEdgeStyle;rounded=0;orthogonalLoop=1;jettySize=auto;html=1;exitX=1;exitY=0.5;exitDx=0;exitDy=0;entryX=0;entryY=0.5;entryDx=0;entryDy=0;fillColor=#d5e8d4;strokeColor=#82b366;strokeWidth=2;" edge="1" parent="1" source="9KwQHy-xfINPgwp2Dgyj-30" target="9KwQHy-xfINPgwp2Dgyj-12">
          <mxGeometry relative="1" as="geometry" />
        </mxCell>
        <mxCell id="9KwQHy-xfINPgwp2Dgyj-30" value="TANK MOVEMENT&lt;br&gt;COMPONENT" style="rounded=0;whiteSpace=wrap;html=1;" vertex="1" parent="1">
          <mxGeometry x="-30" y="60" width="120" height="60" as="geometry" />
        </mxCell>
      </root>
    </mxGraphModel>
  </diagram>
</mxfile>
